<svg width="344.000000" height="258.000000" viewBox="0 0 344 258" fill="none" xmlns="http://www.w3.org/2000/svg" xmlns:xlink="http://www.w3.org/1999/xlink">
	<desc>
			Created with Pixso.
	</desc>
	<defs/>
	<path id="Vector" d="M326.74 184.47L324.12 181.69L337.91 168.84L324.12 155.98L326.74 153.2L343.52 168.84L326.74 184.47Z" fill="#F4F4F4" fill-opacity="1.000000" fill-rule="evenodd"/>
	<path id="Vector" d="M237.01 257.97L33.36 257.97C28.97 257.96 24.63 257.04 20.58 255.23C16.53 253.43 12.85 250.79 9.75 247.46C6.66 244.14 4.2 240.19 2.53 235.84C0.85 231.5 -0.01 226.85 0 222.14L0 78.47C0.05 69.02 3.59 59.98 9.84 53.32C16.09 46.65 24.54 42.91 33.36 42.9L77.56 42.9C78.03 42.9 78.49 43.1 78.82 43.46C79.15 43.81 79.34 44.3 79.34 44.8C79.34 45.31 79.15 45.79 78.82 46.15C78.49 46.51 78.03 46.71 77.56 46.71L33.36 46.71C25.46 46.72 17.88 50.09 12.29 56.08C6.7 62.07 3.56 70.19 3.55 78.66L3.55 222.33C3.56 230.8 6.7 238.93 12.29 244.92C17.88 250.91 25.46 254.28 33.36 254.28L237.01 254.28C240.94 254.28 244.82 253.44 248.45 251.83C252.08 250.21 255.37 247.84 258.14 244.85C260.91 241.86 263.1 238.32 264.59 234.42C266.08 230.53 266.84 226.36 266.82 222.14L266.82 168.86C266.81 168.61 266.85 168.36 266.94 168.12C267.03 167.89 267.16 167.67 267.33 167.49C267.49 167.31 267.69 167.17 267.91 167.07C268.12 166.98 268.36 166.92 268.59 166.93L337.51 166.93C337.94 166.98 338.34 167.21 338.63 167.57C338.92 167.92 339.08 168.37 339.08 168.85C339.08 169.32 338.92 169.77 338.63 170.13C338.34 170.48 337.94 170.71 337.51 170.77L270.34 170.77L270.34 222.14C270.34 231.63 266.83 240.73 260.58 247.44C254.34 254.16 245.86 257.94 237.01 257.97Z" fill="#F4F4F4" fill-opacity="1.000000" fill-rule="evenodd"/>
</svg>
